<svg xmlns="http://www.w3.org/2000/svg" viewBox="0 0 200 200">
    <rect width="200" height="180" fill="#003B5C" />
    <g id="layer1" transform="translate(64 -364.25)">
    <path id="path4907" d="m5.3058 535.15c-3.4726-1.5635-5.9877-3.8862-5.2156-4.8166 0.4582-0.5521-2.7072-6.8531-5.1477-10.247-1.7626-2.4511-1.9842-2.9686-1.4208-3.3168 0.71212-0.44011 1.9973 0.48527 2.3613 1.7003 0.54226 1.8099 2.1253 3.8274 3.0297 3.8613 0.94162 0.0353 1.3093 0.3361 3.074 2.5153 0.78168 0.96522 1.7959 2.0364 2.2538 2.3804 1.3019 0.97802 1.3633 1.0516 1.1563 1.3866-0.13493 0.21832-0.42317 0.21135-0.93672-0.0226-0.408-0.1859-0.81466-0.26514-0.9037-0.17611-0.089041 0.089 0.10875 0.87417 0.43954 1.7447 0.41839 1.1011 0.51561 1.7432 0.31946 2.1097-0.22281 0.41632-0.078319 0.67911 0.68864 1.2525 1.256 0.93898 2.7953 1.5537 3.3539 1.3394 0.38706-0.14853 0.3872-0.27654 0.00123-1.0504-0.24179-0.48469-0.35563-1.1001-0.25298-1.3676 0.37838-0.98603 0.94127-0.47624 1.7379 1.574 0.39011 1.004 0.42764 1.4067 0.16103 1.7279-0.56436 0.68001-2.3776 0.45049-4.6993-0.59483zm-2.1422-4.1229c-0.17815-1.21-1.7803-4.4731-2.2929-4.6698-0.75698-0.29048-0.73704-0.079 0.17379 1.8428 0.46999 0.99168 0.85875 2.0803 0.86392 2.4191 0.01082 0.70892 0.59242 1.3947 1.0499 1.238 0.17148-0.0588 0.26386-0.43232 0.20528-0.83016zm-2.9586-6.7814c-0.19835-0.51689-0.99183-0.52668-0.99183-0.0122 0 0.62655 0.67488 1.1781 0.93215 0.76183 0.11785-0.1907 0.14471-0.52802 0.059677-0.74961zm12.421 10.64c0.1271-0.37188 0.20056-1.1833 0.16325-1.803-0.05213-0.86579 0.04481-1.1269 0.41831-1.1269 0.26739 0 0.55688 0.27046 0.64333 0.60102 0.20428 0.78115 1.1929 0.77652 1.4415-0.007 0.41068-1.2939-0.42111-3.4037-2.1808-5.5316-1.8164-2.1965-0.9186-2.7721 1.0923-0.70028 0.68014 0.70074 1.2366 1.3979 1.2366 1.5493 0 0.15138 0.35106 0.7355 0.78014 1.298 0.68281 0.89522 0.75712 1.2118 0.59567 2.5373-0.31648 2.5984-1.3662 3.8325-3.2742 3.8491-1.0593 0.009-1.1295-0.0418-0.91607-0.66615zm43.083 0.0922c0-0.15591 0.2961-0.49088 0.65802-0.74437 1.0308-0.72196 0.40888-0.90448-1.173-0.34429-2.6161 0.92642-4.0913 1.1181-7.1238 0.92571-2.9365-0.18633-4.9826-0.73277-4.9826-1.3307 0-0.51324 1.0941-0.92727 2.4594-0.93069 0.71331-0.002 1.9495-0.20124 2.747-0.44322 0.79755-0.24197 1.5413-0.42242 1.6528-0.40099 0.1115 0.0214 0.88725-0.0636 1.7239-0.18903 1.7244-0.25844 2.7952-0.93539 2.8762-1.8184 0.15011-1.6347-0.05165-2.2731-0.80939-2.5612-0.42315-0.16088-0.68563-0.42799-0.58329-0.59358 0.34404-0.55668 1.2339-0.30763 2.0887 0.58455 0.65313 0.68171 0.84848 1.1735 0.84848 2.136 0 1.1152 0.10118 1.2928 0.93567 1.6425 1.003 0.42027 1.9986 1.3812 2.5607 2.4715 0.31122 0.60364 0.24404 0.7379-0.6386 1.276-1.0057 0.61316-3.2402 0.83397-3.2402 0.32019zm-0.95807-2.4997c0.06868-0.35664-0.09149-0.52244-0.50471-0.52244-0.68917 0-1.0708 0.44883-0.78076 0.91817 0.29248 0.47324 1.1702 0.20305 1.2855-0.39573zm-44.309-0.068c-0.29657-0.77285 0.31699-2.6955 0.89577-2.807 0.46189-0.089 0.50735 0.052 0.33861 1.0498-0.29546 1.747-0.45584 2.2043-0.77313 2.2043-0.15933 0-0.36689-0.20117-0.46124-0.44706zm18.071-4.3611c-0.31566-0.51075 0.142-0.91137 2.0593-1.8026 2.3498-1.0923 4.8865-1.9773 7.5571-2.6365 1.6829-0.41544 2.086-0.62421 2.0156-1.0439-0.0932-0.5556 1.8532-1.717 2.236-1.3341 0.26845 0.26845-0.77808 1.408-1.2931 1.408-0.2223 0-0.40418 0.10142-0.40417 0.22538 0.000024 0.27895 9.5458 0.24578 9.8257-0.0341 0.11125-0.11125-0.2823-0.7069-0.87455-1.3237-1.8192-1.8945-3.6968-6.3132-3.5827-8.4313 0.0575-1.067-0.4624-1.825-1.1317-1.65-0.38305 0.10017-0.6933-0.0617-0.91604-0.47788-0.19187-0.35851-0.63401-0.62933-1.0274-0.62933-0.89838 0-1.1703-0.29403-0.74535-0.80602 0.55088-0.66377 0.12133-0.75137-1.2842-0.26188-1.6501 0.57464-2.0668 0.58074-2.0668 0.0302 0-0.44034 1.2541-0.90617 3.3874-1.2583 1.265-0.20879 1.7098-0.63819 1.0836-1.0463-0.56227-0.36644-1.5668-0.11021-3.7939 0.96775-1.9831 0.95983-2.5236 0.9527-2.2667-0.0299 0.19183-0.73357-0.13088-0.76866-0.8751-0.0951-0.42823 0.38754-0.74374 0.44016-1.3514 0.22538-1.2222-0.43196-1.128-0.85709 0.35393-1.5972 1.4178-0.70809 1.7374-1.4504 0.91734-2.1309-0.3829-0.31778-0.34178-0.56236 0.31121-1.851 0.41383-0.81665 0.88319-1.404 1.043-1.3052 0.18598 0.11495 0.18184 0.38288-0.01151 0.74416-0.18275 0.34147-0.19215 0.63252-0.0238 0.73657 0.25631 0.15841 0.89387-0.62008 1.7013-2.0775 0.17889-0.32287 0.73258-0.69259 1.2304-0.82159 0.72381-0.18756 1.0921-0.61155 1.8381-2.1163 0.51311-1.0349 1.098-2.4902 1.2998-3.234 0.2018-0.74377 0.60402-1.6228 0.89381-1.9533 0.4764-0.54343 0.88139-2.1336 1.02-4.0048 0.02849-0.38456 0.39177-0.99309 0.80731-1.3523 0.45998-0.39761 0.77335-1.0058 0.80107-1.5546 0.02507-0.49584 0.1932-1.6222 0.37366-2.503 0.18046-0.88083 0.2557-1.6739 0.16718-1.7624s0.15377-0.99703 0.53841-2.0189c0.52645-1.3987 0.7431-2.7459 0.87633-5.4498 0.26277-5.3327 0.28488-5.4055 1.6988-5.5948 0.74375-0.0996 0.75159-0.13155 0.78271-3.1909 0.02659-2.6154 0.11524-3.1516 0.57671-3.489 0.49511-0.36203 0.50978-0.53386 0.15942-1.8681-0.21221-0.80818-0.52654-1.8919-0.69851-2.4082-0.17196-0.51634-0.214-1.1925-0.09341-1.5026 0.20755-0.53364 0.24901-0.52729 0.77623 0.11886 0.66651 0.81685 0.76939 0.68474 1.0422-1.3383 0.1565-1.1605 0.04546-2.1941-0.43568-4.0569-0.35512-1.3748-0.77223-2.6281-0.92692-2.7852-0.15468-0.15701-0.28123-0.56641-0.28123-0.90979 0-0.34336-0.2093-0.92312-0.4651-1.2883-0.32588-0.46525-0.4047-0.986-0.26334-1.7396 0.16544-0.88188 0.07225-1.2207-0.51762-1.882-1.1506-1.2899-1.8752-2.4741-2.7923-4.5629-0.47167-1.0743-1.0407-2.22-1.2645-2.5461-0.54358-0.79189-0.51488-1.6385 0.06307-1.8603 0.67222-0.25796 0.37913-1.9728-0.5445-3.1857-0.40728-0.53485-0.84637-1.3105-0.97576-1.7237s-0.57193-1.0652-0.98341-1.4489c-0.5594-0.52161-0.66184-0.78392-0.40605-1.0397 0.25579-0.25579 0.57405-0.20508 1.2615 0.20099 0.50566 0.29871 0.98408 0.47841 1.0631 0.39934 0.25036-0.25036-0.80655-1.1168-1.3623-1.1168-0.29314 0-0.77774-0.27047-1.0769-0.60103-0.29915-0.33055-0.64881-0.60102-0.77701-0.60102-0.59756 0-2.3655-1.446-2.7614-2.2585-0.42548-0.87324-0.40466-0.94894 0.57178-2.0785 0.55734-0.64475 1.0133-1.4138 1.0133-1.7091 0-0.46754-0.19385-0.51384-1.5025-0.35884-1.547 0.18322-1.9098-0.0952-1.0518-0.80729 0.6412-0.53215 0.55761-1.104-0.18995-1.2995-0.50666-0.1325-0.5978-0.31274-0.43564-0.86146 0.11279-0.38164 0.32631-1.579 0.47449-2.6608 0.29515-2.1547 0.74955-3.5926 1.1353-3.5926 0.59311 0 0.96907 0.82157 0.96907 2.1177 0 0.94828 0.18615 1.6111 0.58001 2.0652 0.53627 0.61832 0.54736 0.76131 0.14705 1.8959-0.23813 0.67493-0.38584 1.2743-0.32824 1.3319 0.05761 0.0576 0.53926-0.0467 1.0703-0.23187 0.53108-0.18513 1.0458-0.25642 1.1438-0.15842 0.16954 0.16954-0.53335 2.8661-1.1307 4.338-0.40819 1.0057-0.34387 1.5635 0.18028 1.5635 0.47352 0 1.082 1.1652 0.83069 1.5908-0.23802 0.40313 0.54877 1.1137 1.2331 1.1137 1.4158 0 2.8012 1.7042 2.2465 2.7636-0.18913 0.36117-0.06038 0.81408 0.4418 1.5541 0.4141 0.61021 0.78403 1.71 0.8899 2.6456 0.09966 0.88071 0.25246 1.8717 0.33956 2.2023 1.0721 4.0686 1.6659 6.1627 1.9583 6.9059 0.39056 0.99276 3.7702 4.6906 4.5968 5.0297 0.308 0.12633 0.52589 0.53489 0.52589 0.98609 0 0.45945-0.21226 0.8487-0.52589 0.96442-0.87102 0.32137-0.93581 0.70458-0.34498 2.0402 0.31025 0.70137 0.62936 1.785 0.70914 2.4081 0.1517 1.1848 1.0073 2.4321 1.3941 2.0322 0.12366-0.12787 0.12136-1.1791-0.0049-2.336-0.12647-1.157-0.18142-2.5769-0.12212-3.1554 0.05931-0.57847 0.17496-2.1336 0.25703-3.4558 0.16107-2.5953 0.33449-4.0128 0.57301-4.6838 0.08306-0.23367 0.2176-0.81884 0.29898-1.3004 0.19163-1.134 0.36756-1.2753 1.8979-1.5241 0.9632-0.15656 1.2851-0.10876 1.3092 0.19446 0.08487 1.0638-0.06084 3.5682-0.29055 4.9939-0.14061 0.87273-0.16544 1.6425-0.05514 1.7107 0.21731 0.13431 0.90481-2.8661 1.0964-4.7849 0.15139-1.5164 0.56231-1.9543 1.2183-1.2982 0.36479 0.36479 0.48766 1.0121 0.46909 2.4714-0.01391 1.0905 0.09521 1.9028 0.24324 1.8113 0.2479-0.15321 0.34574-0.55106 0.73135-2.9736 0.18443-1.1587 0.6466-1.6145 1.138-1.1223 0.41467 0.41535 0.45839 4.6782 0.07058 6.8811-0.26846 1.5249 0.20393 1.7351 0.67556 0.30051 0.1766-0.53716 0.68654-1.9909 1.1332-3.2305 0.44665-1.2396 0.86967-2.5919 0.94006-3.0051 0.22208-1.3039 0.37312-1.5026 1.1424-1.5026 0.9068 0 1.5237 0.95612 1.1149 1.7279-0.1532 0.28924-0.35289 1.2934-0.44374 2.2315-0.18687 1.9295-0.56694 3.5169-1.4498 6.055-0.33486 0.96275-0.52881 1.8305-0.43101 1.9283s0.22987 0.12148 0.29349 0.0526c0.23336-0.25261 2.0857-4.9942 2.749-7.0369 0.92479-2.848 1.9827-3.0922 2.5475-0.58806 0.18525 0.82135 0.12409 1.5218-0.21969 2.516-0.65875 1.9051-0.95511 3.6147-0.65839 3.7981 0.31444 0.19433 1.1757-1.4429 1.1757-2.235 0-0.77375 1.1206-1.147 1.701-0.56652 0.70183 0.70184 0.54124 2.3375-0.46091 4.6945-1.4579 3.4288-1.1972 4.1101 0.56295 1.4708 1.2265-1.8391 1.4298-2.0171 2.3112-2.0233 0.9606-0.007 1.0441 0.36227 0.3677 1.6243-0.61387 1.1453-1.251 3.7832-0.91219 3.7767 0.10262-0.002 0.63138-0.81333 1.175-1.803 1.0174-1.8523 1.491-2.132 2.2778-1.3452 0.43118 0.43118 0.44008 0.98787 0.03615 2.2606-0.19616 0.61805 0.62137 2.0905 1.1647 2.0979 0.79749 0.0108 1.1485 0.604 1.2613 2.132 0.23572 3.1912 0.1862 6-0.11214 6.3611-0.16697 0.20207-0.39362 0.84937-0.50368 1.4384-0.15163 0.81158-0.07776 1.1726 0.30493 1.4902 0.27777 0.23053 0.62592 0.73711 0.77368 1.1257 0.40967 1.0775 0.88043 0.49637 0.82321-1.0163-0.06102-1.6134 0.63123-2.5676 1.4761-2.0347 0.91003 0.57403 1.3389 2.7125 1.108 5.5245-0.41502 5.0543-0.26442 5.8 1.229 6.0855 0.79401 0.15178 0.80891 0.12207 0.86692-1.7281 0.03652-1.1649 0.07004-1.202 1.0833-1.202h1.0457l-0.10076 1.325c-0.05545 0.72877-0.2205 1.64-0.36686 2.0249-0.20775 0.54642-0.12676 0.82969 0.36939 1.2919 0.60048 0.55944 0.63314 0.86169 0.5929 5.4878-0.06638 7.6315-0.36449 12.895-0.80688 14.247-0.23798 0.72719-0.33893 1.8425-0.2448 2.7046 0.28048 2.5689 0.18086 4.422-0.33733 6.2752-0.2773 0.99169-0.6168 2.2764-0.75444 2.8548-0.2944 1.2372-1.1216 4.2757-1.5135 5.5594-0.3091 1.0126-0.3557 2.0339-0.18954 4.1552 0.10924 1.3947 0.0696 1.4797-1.0288 2.2066-0.86584 0.57299-1.36 0.70821-2.0414 0.55856-1.2805-0.28126-1.7522-0.92643-0.97967-1.3399 0.33037-0.17681 0.87203-0.32147 1.2037-0.32147 0.66622 0 1.2094-0.58572 0.58112-0.62664-0.21636-0.0141-1.1005-0.004-1.9647 0.0215-1.0086 0.0303-1.8128-0.122-2.2456-0.42515-0.94409-0.66126-1.0147-0.62615-1.5795 0.78532-0.79493 1.9867-4.4547 5.3853-6.6684 6.1924-2.0447 0.74553-3.712 1.1291-3.712 0.85386 0-0.48973 1.4895-1.8184 2.6572-2.3702 1.5154-0.7162 4.6281-3.6788 5.9185-5.6331 1.654-2.5049 3.6403-8.4476 3.9174-11.72 0.229-2.7044 0.25022-7.1797 0.03921-8.264-0.28848-1.4822-0.44898-2.7669-0.64146-5.1349-0.08178-1.0061-0.27859-2.1709-0.43736-2.5885-0.15877-0.41759-0.3679-1.4929-0.46472-2.3896-0.45563-4.2193-2.7709-8.3674-5.998-10.746-2.2645-1.6691-2.8545-1.9328-4.8405-2.1637-1.5099-0.17555-2.1572-0.0856-3.981 0.553-1.1979 0.41945-2.5016 1.0625-2.8971 1.4291-0.3955 0.36655-1.1734 0.94776-1.7287 1.2916-0.97916 0.6063-4.3323 4.12-4.8928 5.1271-0.15243 0.27386-0.99761 1.3508-1.8782 2.3932-0.88057 1.0424-1.601 2.0181-1.601 2.1682 0 0.15012-0.38947 0.71715-0.8655 1.2601-1.3325 1.5197-2.5976 4.5538-4.3586 10.453-0.64711 2.1678-0.75946 3.1228-0.74241 6.3107 0.01106 2.066 0.13314 3.9695 0.27133 4.23 0.13818 0.2605 0.32572 1.1395 0.41674 1.9533 0.28624 2.5593 2.3132 6.114 4.8723 8.545 2.0434 1.9411 2.9918 2.5277 6.4915 4.0155 1.1711 0.49784 1.286 0.67421 0.86844 1.3326-0.19781 0.3119-0.65901 0.22902-2.2338-0.40143-1.0915-0.43696-2.1433-0.98571-2.3373-1.2194-0.19399-0.23374-0.52242-0.42497-0.72987-0.42497-0.20744 0-0.55412-0.2132-0.77037-0.47378-0.31349-0.37773-0.74063-0.43346-2.1068-0.2749-1.1608 0.13472-1.7823 0.0877-1.9266-0.14578-0.47668-0.77128-1.6624-0.89398-4.2877-0.44367-3.7438 0.64217-7.0448 1.4973-9.9909 2.5881-2.9897 1.107-4.9549 1.4439-4.7447 0.81349 0.0753-0.22588 0.53132-0.4107 1.0134-0.4107 0.48207 0 0.98463-0.16904 1.1168-0.37564 0.13217-0.20659 0.44386-0.37563 0.69263-0.37563 0.24878 0 1.0196-0.25201 1.713-0.56002 0.69338-0.30801 2.2073-0.79569 3.3642-1.0837 2.9185-0.72661 2.9125-0.72437 2.7277-1.0234-0.19233-0.31119-4.3264 0.3834-5.8831 0.98846-0.57848 0.22485-2.0508 0.79115-3.2719 1.2584-1.2211 0.4673-2.5271 1.0911-2.9022 1.3862-0.78678 0.61888-0.93373 0.64807-1.1884 0.23607zm57.548-9.9168c0-0.16528-0.26248-0.30051-0.58329-0.30051-0.3208 0-0.66686 0.13523-0.76901 0.30051-0.10533 0.17044 0.14713 0.30051 0.58328 0.30051 0.42296 0 0.76901-0.13523 0.76901-0.30051zm1.0682-1.9462c0.24006-0.57455 0.70884-2.2311 1.0417-3.6812 0.33288-1.4501 0.7326-2.9747 0.88828-3.3879 0.15567-0.4132 0.36392-1.2922 0.46277-1.9533 0.28284-1.8917-0.26231-0.65672-1.1939 2.7046-0.9148 3.3009-1.1418 3.9488-1.9869 5.6712-0.31399 0.63995-0.4975 1.2823-0.4078 1.4274 0.327 0.5291 0.7691 0.24044 1.1958-0.78076zm-42.687-7.0712c0.22817-0.36919-0.59886-0.72938-1.0436-0.45451-0.17589 0.10871-0.242 0.32353-0.14691 0.47739 0.22936 0.37112 0.95564 0.35715 1.1905-0.0229zm-3.339-3.94c2.1879-0.7732 2.9494-1.3346 2.2002-1.6221-0.27045-0.10378-0.97966-0.0276-1.576 0.16917-0.59637 0.19681-1.1728 0.26941-1.2809 0.16131-0.25612-0.25613 0.53914-0.75438 1.2135-0.76029 0.57677-0.005 0.73771-1.0402 0.21222-1.365-0.40543-0.25056-1.018 0.26735-2.4414 2.0643-1.6841 2.1259-1.3288 2.4132 1.6725 1.3526zm2.8857 0.36532c0-0.52371-0.50843-0.60257-1.0826-0.16793-0.54023 0.40893-0.52678 0.43208 0.25624 0.44115 0.45452 0.006 0.8264-0.1177 0.8264-0.27322zm45.85-22.292c0.08982-0.14532-0.43873-0.26423-1.1746-0.26423-0.99664 0-1.3896-0.13414-1.5405-0.5259-0.19091-0.4955-0.2204-0.4942-0.51046 0.0225-0.37927 0.67568-0.24726 0.81745 1.0092 1.0838 1.0758 0.22806 1.9577 0.10222 2.2164-0.31623zm-33.036-1.03c0.29885-0.77879-0.15926-1.9526-0.76205-1.9526-0.8841 0-1.2945 0.70086-0.9465 1.6162 0.33222 0.87379 1.4201 1.088 1.7085 0.33639zm31.962 0.0328c0-0.28507-0.89954-0.42874-1.0599-0.16928-0.09769 0.15806 0.10082 0.28738 0.44114 0.28738s0.61876-0.0531 0.61876-0.1181zm1.3277-0.0643c0.59765-0.22934 0.61084-0.60283 0.02916-0.82603-0.26227-0.10065-0.5763 0.0719-0.76185 0.41861-0.32913 0.61499-0.11644 0.73326 0.73269 0.40742zm-37.088-0.56887c0-0.24792-0.12724-0.45076-0.28277-0.45076-0.37894 0-0.65034 0.46927-0.41025 0.70936 0.33844 0.33843 0.69302 0.20611 0.69302-0.2586zm-2.0789-6.0853c0.0136-0.12396 0.08583-0.59727 0.16053-1.0518 0.14521-0.8835-0.30018-1.1424-0.60386-0.35106-0.28114 0.73265-0.21618 1.6282 0.1181 1.6282 0.16528 0 0.31163-0.10142 0.32523-0.22538zm2.0789-2.7974c0-0.17504-0.13523-0.23467-0.30051-0.13252s-0.30051 0.24536-0.30051 0.31824c0 0.0729 0.13523 0.13252 0.30051 0.13252s0.30051-0.14321 0.30051-0.31824zm-1.6981-1.0244c0.0931-0.24262 0.03995-0.52106-0.1181-0.61875-0.15806-0.0977-0.28738 0.10082-0.28738 0.44113 0 0.72561 0.16711 0.79881 0.40549 0.17762zm9.0477-4.6883c-0.25761-0.41682-0.43793-0.33909-0.43793 0.18876 0 0.25767 0.13743 0.38356 0.30541 0.27974 0.16798-0.10381 0.22761-0.31464 0.13252-0.4685zm3.5565-7.4168c0.2489-0.6198 0.38934-1.1925 0.3121-1.2727-0.22689-0.23547-1.2874 1.2993-1.2947 1.8737-0.0114 0.89759 0.50849 0.57959 0.98261-0.60102zm16.7-1.8954c0.43321-0.97867 0.3286-1.4521-0.18038-0.8164-0.44173 0.55174-0.76482 1.7352-0.47372 1.7352 0.13607 0 0.43041-0.41345 0.6541-0.91879zm-15.285-0.75175c0-0.0729-0.13523-0.13252-0.30051-0.13252s-0.30051 0.14322-0.30051 0.31825c0 0.17504 0.13523 0.23467 0.30051 0.13252s0.30051-0.24536 0.30051-0.31825zm1.4543-3.0015c0.19181-0.42098 0.34425-0.86047 0.33875-0.97665-0.01434-0.30309-1.192 1.154-1.192 1.4748 0 0.54408 0.51554 0.24309 0.85329-0.4982zm-12.274-3.43c0-0.16528-0.14321-0.30051-0.31825-0.30051s-0.23467 0.13523-0.13252 0.30051 0.24536 0.30051 0.31825 0.30051 0.13252-0.13523 0.13252-0.30051zm9.1655-6.6112c-0.10215-0.16528-0.24536-0.30051-0.31825-0.30051s-0.13252 0.13523-0.13252 0.30051 0.14321 0.30051 0.31825 0.30051 0.23467-0.13523 0.13252-0.30051zm-12.171 83.416c0-0.26169 0.21411-0.4758 0.4758-0.4758 0.53068 0 0.43826 0.64692-0.11895 0.83266-0.19627 0.0654-0.35685-0.0952-0.35685-0.35686zm-41.652-2.9c-0.33902-0.33902-1.0625-0.67285-1.6077-0.74185-1.3767-0.17424-2.1995-0.78346-3.6463-2.6997-1.0213-1.3526-1.4174-1.6582-2.1876-1.6873-0.5173-0.0196-1.3687-0.0534-1.8921-0.0751-0.52335-0.0217-1.0369-0.12488-1.1413-0.22919-0.26041-0.26032 2.2376-2.3621 2.8231-2.3753 0.74483-0.0168 1.5887-0.59811 3.9109-2.6939 2.3878-2.1551 2.8529-2.4198 3.8503-2.1922 0.49316 0.11256 1.0262-0.15672 1.9533-0.98686 0.7013-0.62792 1.3172-1.2423 1.3686-1.3652 0.0514-0.12298-0.26068-0.97218-0.69351-1.8871-0.99476-2.1028-1.3066-3.7859-0.70141-3.7859 0.23649 0 0.59226 0.16228 0.79059 0.36061 0.28048 0.28048 0.36061 0.18746 0.36061-0.41861 0-0.42858-0.20697-0.85865-0.45993-0.95572-0.3974-0.1525-0.44964-1.1068-0.3842-7.019 0.0564-5.0965-0.02179-7.0172-0.30642-7.5271-0.59514-1.0661-0.97429-0.48512-0.83132 1.2738 0.08932 1.0989-0.008 1.7975-0.31044 2.2293-0.24229 0.34592-0.40036 0.85343-0.35127 1.1278 0.15826 0.88454-0.63145 0.79418-0.81789-0.0936-0.097918-0.46626-0.37777-1.6591-0.6219-2.6508-0.24413-0.99168-0.50908-2.1038-0.58878-2.4714-0.079701-0.36757-0.25254-0.9761-0.38408-1.3523-0.13155-0.37621-0.21406-0.85304-0.18336-1.0596 0.030696-0.2066 0.072711-0.51086 0.093371-0.67614 0.076945-0.61558 0.59024-0.27053 0.89406 0.60101 0.17285 0.49585 0.52415 0.90153 0.78067 0.90153 0.52448 0 0.62952-0.91871 0.15885-1.3894-0.16915-0.16915-0.37148-0.63569-0.44961-1.0368-0.56165-2.8829-0.57036-2.7416 0.16227-2.6333 0.37607 0.0556 0.8328 0.36673 1.015 0.69144 0.39277 0.70014 2.222 3.2166 3.3395 4.5942 0.67062 0.82668 0.71983 1.0055 0.31904 1.1593-0.2922 0.11212-0.69414-0.0898-1.0483-0.52672-0.31595-0.38972-0.68751-0.5955-0.8257-0.45732-0.13819 0.13819 0.05302 0.49794 0.4249 0.79944 0.47062 0.38156 0.67615 0.87156 0.67615 1.612 0 0.68584 0.18024 1.1647 0.50729 1.3477 0.4557 0.25503 0.50141 0.98238 0.44941 7.152-0.03184 3.7775-0.1342 7.5868-0.22746 8.4652-0.2202 2.074 0.3601 2.9999 0.97041 1.5484 0.59924-1.4252 1.0764-0.95585 1.1582 1.1393 0.03983 1.0196 0.38385 2.8037 0.76448 3.9647s0.60614 2.1969 0.50112 2.3019c-0.39987 0.39987-1.1156-0.20829-2.1522-1.8288-1.2394-1.9375-1.3519-1.9285-3.4021 0.27179-1.8821 2.0199-3.6787 3.2412-4.4743 3.0415-0.87726-0.22018-1.7095 0.58493-1.3326 1.2892 0.67266 1.2569 3.0788 4.2725 3.7708 4.7259 0.41928 0.27472 0.76233 0.72735 0.76233 1.0058 0 0.27849 0.15049 0.65684 0.33443 0.84078 0.32866 0.32867 0.13824 0.98782-0.28538 0.98782-0.1188 0-0.49337-0.27738-0.83239-0.6164zm-4.6258-5.2258c0-0.23816-0.11991-0.50714-0.26646-0.59771-0.33091-0.20451-1.0044 0.56125-0.73263 0.83301 0.35754 0.35754 0.99909 0.20644 0.99909-0.2353zm9.9168-8.7148c0-0.23817-0.13523-0.51661-0.30051-0.61876s-0.30051 0.0927-0.30051 0.43303c0 0.34032 0.13523 0.61876 0.30051 0.61876s0.30051-0.19486 0.30051-0.43303zm8.1889 13.953c-0.78224-0.32158-0.89649-1.1332-0.1973-1.4015 0.81871-0.31416 5.0806 0.6249 5.0806 1.1195 0 0.33285-0.49562 0.45011-2.1036 0.49771-1.157 0.0342-2.4078-0.0628-2.7797-0.2157zm-20.185-2.87c-0.5166-0.58838-0.85734-1.2024-0.7572-1.3644 0.21372-0.34581 2.4729 1.5068 2.5103 2.0585 0.048372 0.71434-0.81744 0.37153-1.7531-0.69414zm30.627 0.11374c-1.5176-0.55397-8.0369-2.0649-11.522-2.6704-0.80038-0.13905-1.6118-0.37916-1.8031-0.53358s-1.5551-0.4393-3.0307-0.63304c-2.8125-0.36929-4.6796-0.9687-4.6796-1.5024 0-0.39676 1.8818-0.4174 2.2743-0.0249 0.15999 0.15999 1.3703 0.41854 2.6896 0.57455 5.7178 0.67613 11.525 1.8964 15.321 3.2194 2.1486 0.74889 4.0842 1.4199 4.3013 1.4911 0.21708 0.0712 0.31052 0.26568 0.20765 0.43213-0.28884 0.46735-1.9339 0.31286-3.7577-0.35289zm7.7267-2.4422c-0.08297-0.21621-1.0147-0.76922-2.0705-1.2289-1.3004-0.56619-2.0821-1.1188-2.4232-1.7132-0.57583-1.0033-1.5402-1.4449-3.6837-1.6868-0.8264-0.0933-1.773-0.31095-2.1036-0.48376-0.33056-0.17282-1.7505-0.32412-3.1554-0.33622-2.8809-0.0248-3.5707-0.48241-1.3413-0.88971 1.7389-0.31768 5.9597 0.37202 9.2352 1.5091 2.3949 0.83134 5.9295 2.7964 5.9295 3.2965 0 0.19248 0.20284 0.51831 0.45076 0.72406 0.24792 0.20576 0.45076 0.56039 0.45076 0.78807 0 0.52686-1.0877 0.54447-1.2886 0.0208zm-50.569-3.845c-0.32403-0.52429-1.0057-3.8398-1.044-5.0776-0.01788-0.57848-0.29109-1.4575-0.60711-1.9533-1.2873-2.0198-1.9518-4.7252-2.0585-8.3817-0.0747-2.5582 0.20117-3.188 1.3966-3.188 0.63744 0 0.72804 0.11234 0.6059 0.75127-0.17066 0.89276 0.25036 1.0134 0.52432 0.15026 0.23519-0.74102 0.95925-0.78801 1.1576-0.0751 0.080492 0.28924 0.23767 1.4581 0.34929 2.5974s0.3885 2.5974 0.61529 3.2402c0.22679 0.64279 0.43657 2.0491 0.46617 3.1252 0.043971 1.5982 0.16102 2.0139 0.63923 2.2698 0.41926 0.22438 0.53107 0.49789 0.39395 0.96372-0.22091 0.75051-0.30843 1.1431-0.84811 3.8042-0.27254 1.3438-0.54677 1.9808-0.88047 2.0451-0.26656 0.0514-0.58611-0.0708-0.71012-0.27148zm-0.4306-8.06c0-0.61984-0.92575-2.4234-1.2455-2.4265-0.19972-0.002 0.1077 1.5467 0.49176 2.4773 0.28948 0.70141 0.75376 0.67014 0.75376-0.0508zm27.831 7.242c-0.08375-0.13551 0.01953-0.82827 0.22953-1.5395 0.22806-0.77239 0.30155-1.8219 0.1825-2.6063-0.10962-0.7223-0.13073-1.3818-0.04693-1.4656 0.79999-0.79999 1.7513 1.326 1.386 3.0977-0.12556 0.60904-0.2632 1.2831-0.30588 1.4979-0.1795 0.90343-1.1103 1.5577-1.4452 1.0158zm-32.338-1.3049c-1.4049-0.4955-2.6896-1.0708-2.8548-1.2785-0.16528-0.20769-0.60856-0.54172-0.98507-0.74228-0.37651-0.20057-0.60518-0.49313-0.50816-0.65011 0.32274-0.5222 2.1008-0.29527 4.4784 0.57157 1.974 0.71969 2.4127 1.0046 2.7379 1.778 0.35535 0.84512 0.30374 1.3092-0.13865 1.2469-0.09641-0.0136-1.3247-0.4301-2.7296-0.9256zm58.499-0.15158c-0.41367-0.41367-0.17846-1.0017 0.40068-1.0017 0.40068 0 0.60102 0.20034 0.60102 0.60102 0 0.57914-0.58803 0.81436-1.0017 0.40068zm-23.506-1.0856c0.24683-0.3767 0.70312-1.7628 1.014-3.0802 0.37341-1.5825 0.70786-2.3953 0.98557-2.3953 0.31417 0 0.40578 0.39919 0.36264 1.5802-0.06995 1.9147-1.3799 4.5803-2.2508 4.5803-0.51399 0-0.52318-0.0565-0.11141-0.68492zm3.6666-0.74544c-0.09436-0.15268 0.53314-1.0282 1.3945-1.9456 1.8148-1.933 4.5254-5.2064 4.6713-5.6413 0.15407-0.45915 0.99275-0.35445 1.6059 0.20049 0.73365 0.66394 1.0494 0.28819 0.54691-0.65077-0.54879-1.0254-0.49252-3.7124 0.10181-4.8617 0.35644-0.68927 0.4151-1.1723 0.21815-1.7962-0.47171-1.4942-0.65768-5.1518-0.27399-5.3889 0.38757-0.23953 1.2267 0.7236 0.97926 1.124-0.0871 0.14093-0.0368 0.25624 0.11178 0.25624 0.57834 0 1.0498-2.3809 0.89628-4.5263-0.1383-1.9329-0.09517-2.1762 0.40901-2.3081 0.35226-0.0921 0.56361-0.41596 0.56361-0.86361 0-0.73867-0.41646-0.95746-0.76108-0.39985-0.51891 0.83961-1.0475-0.45383-1.1118-2.7204-0.02257-0.79525 0.34855-2.2797 0.87129-3.4853 0.27966-0.64495 0.55856-1.4927 0.61978-1.884 0.06121-0.39122 0.40882-1.3378 0.77246-2.1036 0.5598-1.1788 0.6594-1.899 0.6497-4.6979-0.01896-5.4688-0.77093-5.54-3.4576-0.32747-0.90178 1.7496-1.7748 3.1335-1.9401 3.0754-0.16528-0.0581-0.25978-0.33262-0.21001-0.60998 0.07215-0.40204-0.06497-0.46528-0.67615-0.31188-1.0465 0.26264-0.97797-0.19172 0.27674-1.8355 0.57386-0.7518 1.2762-1.8576 1.5608-2.4573 0.28458-0.59972 0.56672-0.94248 0.62697-0.76171 0.06026 0.18077-0.17155 0.87969-0.51513 1.5532-0.34358 0.67347-0.5082 1.2245-0.36583 1.2245 0.46635 0 1.9752-3.1312 1.9115-3.9668-0.04211-0.55272 0.13303-0.9206 0.54265-1.1398 0.33266-0.17803 0.60483-0.45016 0.60483-0.60472 0-0.15458 0.3489-1.0438 0.77533-1.9761 0.42643-0.93227 0.81469-1.9843 0.8628-2.3378 0.10256-0.75369 1.1857-3.1146 1.7794-3.8785 0.24492-0.31515 0.61157-0.45482 0.9017-0.34349 0.52847 0.2028 0.65702 0.88551 0.21784 1.1569-0.14911 0.0922-0.56902 1.1482-0.93313 2.3467-0.69505 2.2878-0.74583 2.4983-1.0219 4.2352-0.09444 0.59426-0.18914 1.1861-0.21043 1.3152-0.10767 0.65291 0.07645 0.74024 0.45866 0.21753 0.61314-0.83851 0.70805-0.52638 0.49122 1.6155-0.18115 1.7895 0.000601 2.56 0.4375 1.8533 0.10692-0.173 0.26904-1.255 0.36026-2.4044 0.15383-1.9382 0.11399-2.1323-0.54927-2.6751l-0.71513-0.58525 1.3428-1.3758c1.2715-1.3028 2.1151-1.6387 1.8355-0.73094-0.07 0.22726-0.14734 0.81889-0.17185 1.3147-0.02452 0.49584-0.13855 1.3072-0.25342 1.803-0.11487 0.49585-0.26273 1.172-0.32858 1.5026-0.06585 0.33055-0.3978 1.9533-0.73767 3.6061s-0.6763 3.3432-0.74762 3.7564c-0.07132 0.41321-0.20793 1.0894-0.30358 1.5026-0.09565 0.41321-0.24381 1.3598-0.32924 2.1036-0.31406 2.734-0.50509 3.4744-1.116 4.3253l-0.62425 0.86944 0.65838 0.49662c0.56769 0.42821 0.67584 0.85595 0.78516 3.1053 0.06973 1.4348 0.29294 2.8747 0.49602 3.1999 0.30161 0.48296 0.28254 0.69063-0.10412 1.1339-1.0898 1.2494-2.9255 5.9334-3.3925 8.6565-0.08504 0.49584-0.28261 1.341-0.43902 1.8782-0.15642 0.53716-0.21067 0.97666-0.12055 0.97666 0.09011 0-0.05456 0.33331-0.32149 0.7407-0.61621 0.94046-0.64022 1.7871-0.04419 1.5584 0.7631-0.29283 0.79548 0.31631 0.09637 1.8133-0.87767 1.8794-0.82615 1.83-1.273 1.2189-0.34794-0.47584-0.59956-0.27132-2.5593 2.0802-1.1954 1.4344-2.3279 2.8553-2.5167 3.1577-0.48594 0.77812-1.52 0.73773-1.3137-0.0513 0.2094-0.80075-0.04104-0.75756-1.0143 0.17489-0.44543 0.42676-0.88709 0.65099-0.98145 0.49831zm3.862-3.0773c0.10215-0.16528 0.05049-0.30051-0.11479-0.30051s-0.38408 0.13523-0.48623 0.30051-0.05049 0.30051 0.11479 0.30051 0.38408-0.13523 0.48623-0.30051zm-4.0925-3.8315c-0.01956-0.12396-0.01668-0.33546 0.0064-0.46999 0.02311-0.13453-0.1074-0.7994-0.28999-1.4775-0.18259-0.67809-0.37147-2.9345-0.41973-5.0143-0.08565-3.6908-0.27832-6.0194-0.62372-7.5378-0.09399-0.4132-0.29219-1.495-0.44044-2.4041-0.25327-1.553-0.33225-1.9619-0.76152-3.9428-0.09385-0.43308-0.22165-1.4135-0.28401-2.1787-0.17053-2.0928 0.46223-1.7376 1.4095 0.79115 0.83294 2.2236 1.0407 3.1438 1.3054 5.7811 0.08295 0.8264 0.22591 2.0435 0.3177 2.7046 0.09178 0.66113 0.20827 2.8924 0.25885 4.9584s0.1948 4.1508 0.32049 4.6329c0.20978 0.80469 0.264 1.9638 0.17336 3.7062-0.03181 0.61149-0.8845 1.0068-0.97229 0.45077zm-49.277-1.4755c-1.0976-0.29407-4.779-5.3801-4.779-6.6025 0-0.22031-0.52782-1.543-1.1729-2.9394-1.1823-2.5592-1.2227-2.8866-0.35466-2.8748 0.85665 0.0115 3.3812 4.3781 3.8307 6.6259 0.13431 0.67153 0.6876 1.3239 1.9794 2.3337 0.98612 0.77088 2.1434 1.6884 2.5718 2.0389l0.77888 0.6373-0.94682 0.48962c-0.96623 0.49965-1.0704 0.51556-1.9074 0.29131zm1.7481-5.5979c-0.08839-0.23033-0.04183-0.60936 0.10345-0.84229 0.31972-0.51261 1.333-0.0101 1.333 0.66102 0 0.55805-1.2322 0.71354-1.4365 0.18127zm-0.24771-2.6932c-0.37034-0.53716-1.019-1.2658-1.4415-1.6192-0.70948-0.59349-0.73628-0.70213-0.35091-1.4222 0.36527-0.68251 0.35078-0.92701-0.11627-1.9628-0.53602-1.1887-0.63065-2.4129-0.31586-4.0862 0.22684-1.2058-0.22273-1.9139-0.87268-1.3745-0.73548 0.61039-1.4304 0.18113-1.199-0.74068 0.13989-0.55736 0.03234-0.9274-0.38165-1.3131-0.60658-0.56513-0.64803-1.5564-0.21325-5.1002 0.16034-1.3069 0.11831-1.5901-0.21927-1.4778-0.22969 0.0764-0.48574 0.46588-0.56898 0.86544-0.08325 0.39957-0.45678 1.299-0.83006 1.9988-0.73458 1.3771-2.0155 2.0158-2.5021 1.2475-0.38191-0.60303-0.33165-2.303 0.09063-3.0655 0.32488-0.58667 0.40721-1.8047 0.5479-8.1056 0.0375-1.6795 0.07929-1.7651 1.2106-2.4792 0.64444-0.40682 1.6241-0.73967 2.1771-0.73967 1.2961 0 2.2428-0.98954 2.4359-2.5461 0.08043-0.64847 0.38409-1.6207 0.6748-2.1605 0.51882-0.96339 0.51565-0.99525-0.17157-1.7268-0.57997-0.61734-0.66447-0.9354-0.49232-1.853 0.1143-0.60928 0.53646-1.6284 0.93813-2.2647 0.40167-0.63628 0.7303-1.2431 0.7303-1.3486 0-0.10542-0.40148-0.64894-0.89218-1.2078-0.4907-0.55887-0.81955-1.2054-0.73079-1.4367 0.26625-0.69382-0.43111-0.85296-0.84357-0.19251-0.21044 0.33697-0.68543 0.61268-1.0555 0.61268-0.3701 0-1.204 0.21249-1.853 0.4722-1.1397 0.456-1.2205 0.44674-2.3554-0.26973-1.9812-1.2507-2.6494-2.7598-1.7604-3.9757 0.31438-0.42995 0.33934-0.68679 0.09532-0.98081-0.46571-0.56115-0.35455-3.1023 0.21008-4.8022 0.26216-0.78931 0.91703-2.1061 1.4553-2.9263 0.53823-0.82015 1.1664-2.064 1.396-2.764 0.22957-0.70005 0.66344-1.4955 0.96416-1.7676 0.30072-0.27216 0.84617-1.1193 1.2121-1.8825 0.8842-1.8442 2.651-3.942 3.3201-3.942 0.29556 0 0.53738 0.0792 0.53738 0.17593 0 0.22694-1.9917 4.273-2.3299 4.733-0.14148 0.19246-0.4138 0.71699-0.60515 1.1656-0.54637 1.2809 0.12804 1.2975 0.72079 0.0177 0.77163-1.666 3.0246-4.5203 3.7497-4.7504 0.98339-0.31212 1.2681 0.25439 0.57234 1.1389-0.83185 1.0575-2.4083 4.0879-2.4083 4.6295 0 0.7642 0.573 0.12139 1.4033-1.5742 0.9279-1.895 1.3992-2.3725 2.083-2.1101 0.44624 0.17124 0.44762 0.24612 0.01587 0.86002-1.5276 2.172-2.8599 4.4655-2.5315 4.3576 0.20995-0.0689 0.68919-0.58824 1.065-1.154 1.6625-2.5029 3.431-3.6646 3.8634-2.5378 0.09373 0.24426-0.35001 1.3382-0.98609 2.431-2.5405 4.3645-2.7755 4.8036-2.7921 5.2161-0.02224 0.5528 0.53069 0.0145 3.2952-3.2079 2.0834-2.4286 3.1062-3.0303 3.4827-2.0491 0.15849 0.41302-0.57645 1.6734-1.8075 3.0997-0.32041 0.37123-0.49742 0.76011-0.39334 0.86418 0.10407 0.10407 1.1076-0.71056 2.23-1.8103 1.5433-1.5121 2.2182-1.9792 2.7688-1.916 1.168 0.13402 1.0498 0.65686-0.56548 2.5028-0.83491 0.9541-1.4614 1.7913-1.3923 1.8604 0.23814 0.23815 1.5817-0.82918 1.9796-1.5725 0.72946-1.363 3.3206-1.321 2.7963 0.0453-0.08973 0.23384 0.04802 0.40289 0.32831 0.40289 0.45036 0 0.62812 0.36708 0.49992 1.0324-0.029811 0.15463 0.024371 0.59412 0.12039 0.97666 0.15563 0.62008 0.35136 0.69552 1.8046 0.69552 1.3189 0 1.715 0.12132 2.0752 0.63552 0.24482 0.34954 0.3785 0.80916 0.29706 1.0214-0.081441 0.21222-0.019324 0.46545 0.13805 0.5627 0.28997 0.17921 0.89874-1.0926 0.91859-1.9191 0.037105-1.5451 0.38466-2.9195 0.92211-3.6464 0.34029-0.46029 0.61873-0.92102 0.61873-1.0239 0-0.41002 2.2017-2.8424 2.5728-2.8424 0.8656 0 0.67941 0.64498-0.7308 2.5315-0.81055 1.0843-1.5571 2.412-1.659 2.9505-0.10191 0.53844-0.25718 1.317-0.34506 1.7302-0.087875 0.4132-0.29966 1.4753-0.47062 2.3602-0.17097 0.88494-0.7747 2.9416-1.3416 4.5703-0.56692 1.6287-1.0308 3.139-1.0308 3.3561 0 0.21711-1.1541 1.5412-2.5646 2.9424-2.3541 2.3387-3.4663 4.0022-4.1808 6.2534-0.15707 0.49488-0.08196 0.5734 0.42232 0.44153 0.49143-0.12851 0.61146-0.019 0.60381 0.5508-0.01325 0.98704-0.70168 1.8171-1.3126 1.5827-0.32033-0.12293-0.75604 0.0888-1.2259 0.59579-0.4009 0.43258-0.97929 0.7865-1.2853 0.7865-0.57347 0-2.4774 1.751-2.4774 2.2785 0 0.1631-0.40569 0.53619-0.90153 0.82909s-0.90583 0.69393-0.91108 0.89119c-0.0053 0.19726-0.19284 0.11702-0.41686-0.17831-0.37484-0.49416-0.55416-0.3744-2.2498 1.5026-1.0134 1.1217-1.9868 2.5128-2.1632 3.0913-0.44128 1.4472-0.71038 9.3158-0.31859 9.3158 0.35389 0 0.63095-1.2144 0.61706-2.7046-0.0054-0.57849 0.0729-1.6603 0.17397-2.4041 0.10107-0.74376 0.2455-1.9391 0.32095-2.6563 0.16057-1.5264 0.32002-1.8513 0.90847-1.8513 0.50955 0 0.53888 0.28347 0.13833 1.337-0.2788 0.7333-0.25196 0.76437 0.49769 0.57622l0.79238-0.19887-0.24059 1.4718c-0.13232 0.80947-0.28631 1.9451-0.3422 2.5236-0.05588 0.57849-0.16208 1.5251-0.236 2.1036-0.36983 2.8943-0.56442 5.0752-0.54962 6.1604 0.01112 0.8158-0.18366 1.4184-0.60616 1.8752-0.66281 0.71672-0.68788 0.58656 0.5446 2.8267 0.24065 0.43741 0.52288 1.4178 0.62717 2.1787 0.15579 1.1366 0.10556 1.3834-0.28153 1.3834-0.25913 0-0.77416-0.43949-1.1445-0.97665zm-0.91655-7.8728c0.06641-0.34259-0.04188-0.48709-0.30051-0.40097-0.22238 0.074-0.45106 0.37566-0.50816 0.67024-0.06641 0.34259 0.04188 0.48708 0.30051 0.40096 0.22238-0.074 0.45106-0.37566 0.50816-0.67023zm1.549-6.7948c0-0.17503-0.13523-0.23467-0.30051-0.13252s-0.30051 0.24536-0.30051 0.31825c0 0.0729 0.13523 0.13252 0.30051 0.13252s0.30051-0.14321 0.30051-0.31825zm0.30051-3.1554c0-0.25767-0.13523-0.38492-0.30051-0.28278-0.16528 0.10215-0.30051 0.31298-0.30051 0.46851 0 0.15552 0.13523 0.28277 0.30051 0.28277s0.30051-0.21083 0.30051-0.4685zm3.3056-9.4661c0-0.17503-0.13523-0.23467-0.30051-0.13252-0.16528 0.10216-0.30051 0.24536-0.30051 0.31825 0 0.0729 0.13523 0.13252 0.30051 0.13252s0.30051-0.14321 0.30051-0.31825zm2.4688-2.7566c0.9561-1.03 1.7384-2.049 1.7384-2.2644s0.21328-0.71714 0.47394-1.115c0.26067-0.39783 0.4297-1.0354 0.37564-1.4168-0.0955-0.67371-0.1172-0.66703-0.75957 0.23351-0.3637 0.50986-0.72833 1.2968-0.81029 1.7488-0.12825 0.70726-0.98375 1.8934-2.7482 3.8104-0.24096 0.26179-0.43811 0.56605-0.43811 0.67615 0 0.49471 0.55111 0.0696 2.1683-1.6726zm-11.654-26.938c0.59205-1.1449 0.21423-1.4714-0.48159-0.41616-0.61581 0.93389-0.68543 1.2796-0.2577 1.2796 0.16104 0 0.49372-0.38855 0.73929-0.86343zm-0.06004 52.533c-1.5506-0.30571-1.8736-0.48694-1.8736-1.0515 0-0.31288 0.37521-0.43303 1.3523-0.43303 0.74376 0 1.3523 0.11353 1.3523 0.25227 0 0.13875 0.3457 0.40979 0.76822 0.6023 0.42252 0.19252 0.685 0.48468 0.58328 0.64926-0.20839 0.33718-0.38203 0.33564-2.1825-0.0193zm60.539-12.812c-0.26544-0.42949 0.66001-1.4484 1.0035-1.1049 0.2083 0.2083 0.12124 0.47413-0.2718 0.82982-0.31806 0.28784-0.64734 0.41162-0.73173 0.27507zm-1.2799-1.2259c0.09313-0.29344 0.65845-1.4546 1.2563-2.5805 0.73342-1.3812 1.1859-1.948 1.3911-1.7428 0.48925 0.48925-1.7737 4.8567-2.5164 4.8567-0.16516 0-0.2241-0.24008-0.13097-0.53351zm-12.726-1.8372c-0.35248-0.49501-0.84768-1.395-1.1005-2-0.57748-1.3821-0.66319-4.7478-0.13705-5.3817 0.57396-0.69158 1.4775-0.57636 1.6565 0.21126 0.80242 3.5302 1.1654 5.6553 1.192 6.9793 0.02491 1.2363-0.79737 1.3338-1.6111 0.19112zm-18.378-1.2781c-1.2548-2.3446-1.9871-8.064-1.2168-9.5033 0.18598-0.34752 0.33815-0.90321 0.33815-1.2349 0-0.59275 0.50182-1.1384 0.78579-0.85443 0.079629 0.0796 0.19978 0.80313 0.26701 1.6078 0.36902 4.4172 0.51319 5.4971 0.79704 5.9706 0.099072 0.16528 0.40663 1.0895 0.68346 2.0538 0.38923 1.3558 0.42329 1.8497 0.15026 2.1787-0.51936 0.62579-1.4108 0.51797-1.8049-0.21828zm1.9934-2.4365c-0.5211-1.7155-0.41148-2.6295 0.31537-2.6295 0.302 0 0.41861 0.41858 0.41861 1.5026 0 1.3649-0.45124 2.0577-0.73399 1.1269zm-0.49276-4.6579c-0.025366-0.8478-0.16444-1.9986-0.41767-3.4559-0.15693-0.90305 0.16298-1.0744 0.73012-0.39102 0.41965 0.50564 0.79834 2.9904 0.65499 4.2976-0.085075 0.77579-0.94271 0.37618-0.96743-0.45077zm15.801-1.6311c-0.33056-0.18463-0.64241-0.3684-0.69299-0.40838-0.05058-0.04 0.12707-0.91799 0.39478-1.9511 0.26772-1.0331 0.54875-2.3666 0.62452-2.9632 0.07577-0.59663 0.26569-1.8822 0.42204-2.8569 0.15635-0.97467 0.2266-1.8654 0.15612-1.9795-0.07048-0.11403 0.07832-0.50209 0.33065-0.86236 0.48268-0.68911 1.0187-0.61744 1.0187 0.13622 0 0.24485 0.28493 0.83059 0.63319 1.3016l0.63319 0.85643-0.66288 2.9098c-0.36458 1.6004-0.72863 3.327-0.809 3.837-0.35051 2.224-0.81248 2.6707-2.0483 1.9804zm-21.186-7.56c0-0.59006 0.67587-1.6724 1.0443-1.6724 0.55935 0 0.57713 0.56944 0.03988 1.2772-0.35597 0.46892-1.0842 0.73437-1.0842 0.39519zm-2.2882-0.69571c-0.25236-0.40003-0.22227-0.69301 0.12575-1.2242 0.56947-0.86919 3.478-2.7576 4.2472-2.7576 1.1315 0 1.4931-0.35779 1.6902-1.6728 0.29253-1.9507 0.92222-3.5862 1.3808-3.5862 0.50293 0 0.46232 0.63975-0.20987 3.3056-0.556 2.2051-1.3804 3.4559-2.2779 3.4559-0.293 0-1.426 0.67615-2.5179 1.5025-1.0918 0.82641-2.0125 1.5026-2.0459 1.5026-0.033416 0-0.21004-0.23666-0.39251-0.5259zm28.608-18.37c-0.28548-0.31546-0.94298-0.74916-1.4611-0.96377s-1.1723-0.59885-1.4538-0.85386c-0.28147-0.25501-1.2654-0.93696-2.1865-1.5154-3.4323-2.1556-2.0531-2.5964 4.0248-1.2864 1.5977 0.34437 0.04657-0.56963-2.4108-1.4206-1.369-0.47403-2.597-1.0365-2.7289-1.2499-0.14525-0.23501-0.67371-0.35066-1.3401-0.29324-0.81317 0.0701-1.0653-0.01-0.96619-0.30677 0.07376-0.22086 0.59602-0.42654 1.1606-0.45706 0.56457-0.0305 3.3838-0.47002 6.265-0.97666 5.7948-1.019 7.047-1.1186 6.859-0.54552-0.07389 0.22521-1.0166 0.46937-2.354 0.60967-3.3636 0.3529-6.4032 0.87935-6.7234 1.1645-0.31196 0.27786 0.31066 0.31242 4.5989 0.25527 2.1991-0.0293 2.7811 0.0483 2.6743 0.35641-0.10174 0.29339-0.76768 0.36798-2.6101 0.29237-2.6972-0.11069-4.0292 0.0945-3.8624 0.59492 0.112 0.336 1.1825 0.77271 4.4433 1.8127 2.2318 0.71178 2.8079 1.1319 2.5332 1.8477-0.23761 0.61921-1.6825 0.67102-2.6189 0.0939-0.36607-0.22561-1.3417-0.57223-2.1681-0.77025s-2.0137-0.50971-2.6385-0.69265c-0.81522-0.2387-1.2278-0.24074-1.4613-0.007-0.45983 0.45983-0.09688 0.90033 0.92715 1.1252 0.48253 0.10598 1.0458 0.39576 1.2518 0.64395 0.20598 0.2482 0.79005 0.66101 1.2979 0.91737 1.2095 0.61052 2.2985 1.6183 2.0985 1.942-0.24723 0.40003-0.58594 0.30676-1.1502-0.31673zm-18.78-1.41c-1.0989-0.92464-2.1302-3.114-2.1302-4.5221 0-1.5786 0.72359-1.2299 1.3103 0.63153 0.5434 1.7238 1.8558 3.5852 2.3238 3.296 0.15057-0.0931 0.19129-0.68497 0.090489-1.3154-0.2555-1.5978 0.30654-1.7889 1.1821-0.40191 0.39664 0.62832 0.93956 1.3236 1.2065 1.5452 0.36627 0.30398 0.41056 0.54247 0.18055 0.97224-0.48908 0.91387-2.9794 0.79095-4.1636-0.20551zm0.1178-5.2021c-0.64057-0.47762-1.4453-1.458-1.7883-2.1787l-0.62365-1.3103-3.2987 0.0379c-1.8143 0.0208-5.0905 0.12622-7.2805 0.23421-2.452 0.1209-3.9818 0.0867-3.9818-0.0891 0-0.157 0.37188-0.36274 0.8264-0.4572 0.61706-0.12823 11.389-0.48515 14.424-0.47792 0.2066 0.0006 0.37564-0.12798 0.37564-0.2855 0-0.39771-1.4591-0.76201-6.1661-1.5395-3.6722-0.60656-4.491-0.88024-3.8258-1.2788 0.12396-0.0743 1.6453 0.11571 3.3807 0.42217 3.6815 0.65011 3.9066 0.66781 3.9066 0.3071 0-0.3333-3.1343-2.1322-3.715-2.1322-0.23018 0-0.56837-0.18057-0.75152-0.40125-0.18315-0.22069-0.90966-0.58227-1.6145-0.80353-1.6-0.50229-1.9572-0.79404-1.5143-1.237 0.25056-0.25057 0.67487-0.17674 1.6378 0.28494 0.71478 0.34273 1.6377 0.76508 2.0509 0.93858 0.4132 0.17349 1.61 0.85664 2.6596 1.5181 3.0361 1.9134 3.3295 1.4801 0.79623-1.1758-1.6524-1.7324-2.0103-2.4297-1.2471-2.4297 0.50506 0 3.2321 3.1484 3.7487 4.328 0.48157 1.0995 0.894 0.7366 1.137-1.0004 0.099956-0.71461 0.45285-2.1952 0.78422-3.2901s0.6629-2.8022 0.73674-3.7938c0.12268-1.6477 0.64084-3.1902 1.4638-4.3574 0.1748-0.24792 0.64141-1.1945 1.0369-2.1036 0.81225-1.8669 2.7399-4.0747 3.787-4.3376 0.74805-0.18775 2.273-2.1947 3.0126-3.965 0.75873-1.8159 0.91505-3.1365 1.1383-9.6166 0.20067-5.824 0.90963-9.2714 2.4941-12.128 1.1464-2.0666 1.542-2.604 4.482-6.0884 1.6481-1.9533 3.3921-4.734 2.969-4.734-0.08936 0 0.10847-0.53109 0.43962-1.1802 0.66612-1.3057 1.3358-1.6504 2.6151-1.3459 1.2663 0.30137 1.8337 0.93355 2.0889 2.3275 0.22463 1.2269 0.19792 4.1228-0.04022 4.361-0.06653 0.0665 0.07585 0.50155 0.31639 0.96672 0.84325 1.6307 1.4092 8.8826 0.88965 11.399-0.08532 0.4132-0.22714 1.157-0.31515 1.6528-0.19387 1.0923-1.6091 5.2902-1.9249 5.7097-0.32614 0.43327-0.59283 1.6538-0.36001 1.6476 0.29677-0.008 2.3952-3.6323 2.9741-5.1368 0.2791-0.72539 0.88413-1.9672 1.3445-2.7595 0.46038-0.79235 0.83705-1.4924 0.83705-1.5556 0-0.52888 3.3318-4.888 4.8533-6.3498 1.7726-1.703 4.4975-3.7262 5.0186-3.7262 0.12399 0 1.404-1.0818 2.8444-2.4041 2.1717-1.9935 2.7888-2.4041 3.6137-2.4041 1.9537 0 2.8243 1.9301 2.1644 4.7984-0.13186 0.5731-0.27093 2.1958-0.30904 3.6061-0.11413 4.2234-3.3294 13.042-5.9176 16.231-0.4666 0.57483-0.85024 1.1834-0.85253 1.3523-0.0072 0.53083-3.2794 4.1861-4.1363 4.6205-0.44987 0.22805-1.2236 0.78413-1.7195 1.2357-1.0528 0.95887-2.288 1.8134-2.6212 1.8134-0.1285 0-0.23364-0.26126-0.23364-0.58056 0-0.51905 1.0965-1.5424 1.9886-1.8558 0.47781-0.16788 3.9702-4.0446 5.2502-5.8279 1.3071-1.8211 2.8332-4.5348 3.1264-5.5592 0.11824-0.4132 0.4548-1.2922 0.74788-1.9533 0.84083-1.8966 1.8089-4.4884 1.8089-4.8429 0-0.17801 0.20361-0.7318 0.45247-1.2306 0.30368-0.60875 0.44335-1.7356 0.42475-3.4269-0.02678-2.434 0.16266-4.6909 0.4768-5.6807 0.08324-0.26227-0.03315-0.72913-0.25861-1.0375-0.39786-0.5441-0.43645-0.54179-1.3075 0.0784-0.49364 0.35151-1.3608 1.1518-1.927 1.7784-0.56621 0.62664-1.7703 1.6104-2.6757 2.186-4.3855 2.7884-6.764 5.3894-9.1563 10.013-3.6639 7.0812-4.1897 8.0312-5.2726 9.5252-0.41926 0.57848-1.0278 1.5663-1.3523 2.1952-0.73748 1.4293-1.7847 2.4372-2.3191 2.2321-0.76652-0.29414-0.1977-4.7577 0.98744-7.7486 0.3568-0.90044 0.70165-1.84 0.76633-2.0879 0.06468-0.24792 0.32362-1.1945 0.57541-2.1036 0.83522-3.0154 1.0524-6.3494 0.66553-10.217-0.30681-3.0675-0.38969-3.6591-0.6104-4.3574-0.10449-0.33055-0.25144-1.5991-0.32655-2.8189-0.21714-3.5264-0.78938-3.5676-2.5851-0.1862-0.52665 0.99169-1.2148 2.0822-1.5292 2.4234-0.31443 0.34122-0.57169 0.75199-0.57169 0.91283s-0.67615 0.95842-1.5025 1.7724c-0.8264 0.81398-1.5025 1.5747-1.5025 1.6904 0 0.11574-0.46944 0.92326-1.0432 1.7945-0.57376 0.87122-1.3704 2.5572-1.7703 3.7467-0.63624 1.8923-0.73082 2.74-0.75654 6.7814-0.0436 6.8476-0.17464 7.9155-1.3775 11.225-1.0637 2.9269-1.3113 3.3333-3.4184 5.6107-0.559 0.60418-1.1742 1.4156-1.3671 1.803-0.1929 0.3875-0.81141 0.92258-1.3745 1.1891-0.96921 0.4587-1.4388 1.1347-2.8041 4.0362-0.23669 0.50304-0.51782 1.9906-0.62472 3.3056-0.23845 2.9334-0.59931 4.5307-1.1731 5.1927-0.24025 0.27716-0.78997 1.57-1.2216 2.8731l-0.78479 2.3692 0.74415 0.88437c0.40928 0.48641 0.74415 1.1256 0.74415 1.4204 0 0.29482 0.33807 1.0342 0.75127 1.6431 1.4058 2.0715 0.58706 2.6759-1.5084 1.1135zm-5.9915-1.2144c-0.095093-0.15386-0.063176-0.34755 0.07092-0.43043 0.37698-0.23299 2.7711 0.15513 2.7711 0.44923 0 0.35202-2.6236 0.33466-2.842-0.0188zm10.43-0.5203c-0.65013-0.26233-0.42616-1.5571 0.35826-2.071 1.7306-1.1339 3.1053 0.36827 1.4958 1.6344-0.81042 0.63748-1.1552 0.71867-1.854 0.43667zm5.5027-0.97326c-0.10094-0.16332 0.59256-0.52115 1.5524-0.80098 0.95416-0.27819 2.0053-0.62114 2.3359-0.76212 1.1632-0.49606 6.2729-1.7382 6.5206-1.5852 0.46143 0.28518-0.04251 0.64446-1.1832 0.84355-0.62163 0.1085-1.7388 0.38629-2.4825 0.61731-0.74376 0.23102-2.2313 0.68256-3.3056 1.0034s-2.2462 0.67242-2.6042 0.78128c-0.35797 0.10885-0.73296 0.0651-0.8333-0.0973zm1.5068-3.8997c-0.1005-0.16262-0.07911-0.35633 0.04755-0.43045 0.44056-0.25783 2.6344-0.0551 2.6344 0.2435 0 0.39714-2.4466 0.56769-2.6819 0.18695zm-0.54857-2.0469c-1.0112-0.26425-0.51451-0.69438 0.80182-0.69438 1.5293 0 2.3479 0.24553 2.1087 0.63251-0.16913 0.27367-1.9548 0.31162-2.9105 0.0619zm5.7096-1.632c-0.76149-0.42615-0.64497-0.86539 0.22957-0.86539 0.41544 0 0.99017-0.12349 1.2772-0.27442 0.287-0.15093 1.1827-0.38758 1.9905-0.52589 1.371-0.23474 1.4735-0.31443 1.5404-1.1978l0.07165-0.94637-1.3507 0.85658c-1.0327 0.65496-1.5722 0.8147-2.2916 0.67866-1.7648-0.3337-1.9407-0.54464-1.8286-2.1924 0.12956-1.9046 0.31902-2.2027 1.2512-1.9688 0.8482 0.21288 2.7918-0.33243 2.7918-0.7833 0-0.16333-0.13088-0.54151-0.29084-0.8404-0.21796-0.40728-0.14893-0.67187 0.27551-1.056 0.71294-0.64519 1.6069-0.24274 2.2581 1.0166 0.39278 0.75955 0.39315 0.90622 0.0031 1.2299-0.62177 0.51603-0.55069 1.1208 0.15817 1.3457 0.71226 0.22606 0.78064 1.2398 0.1407 2.0859-0.61506 0.81316-0.5501 1.37 0.1598 1.37 0.74072 0 0.7913 0.54909 0.07513 0.81554-0.28924 0.10761-0.90155 0.46967-1.3607 0.80456-0.93115 0.67919-4.1773 0.9639-5.1004 0.44733zm7.8283-1.6268c-0.24084-0.24084 0.82907-3.5518 1.1862-3.6708 0.16501-0.055 0.37436 0.18431 0.46524 0.53182 0.10235 0.39138 0.36236 0.59619 0.68323 0.53818 0.8358-0.15111 0.79751 0.45345-0.09308 1.4694-0.80448 0.91774-1.9015 1.4715-2.2416 1.1314zm-9.8912-4.5476c-0.24172-1.7492 1.9413-4.5354 3.0276-3.864 0.16159 0.0999-0.32258 1.0214-1.0759 2.0478-1.3341 1.8178-1.8811 2.3268-1.9517 1.8162zm12.238-5.3516c-0.85079-1.2985-0.75823-3.1628 0.15702-3.1628 0.63056 0 2.0356 1.2275 1.8773 1.6401-0.0879 0.22907-0.01382 0.68931 0.16464 1.0228 0.35434 0.66208 0.26211 0.76712-0.92143 1.0494-0.6295 0.15016-0.89354 0.0366-1.2775-0.54944zm9.7641-2.2364c-0.23139-0.14651-0.43424-0.71917-0.45076-1.2726l-0.03005-1.0062-1.5777 0.10275c-1.2781 0.0832-1.5777 0.013-1.5777-0.36991 0-0.25997 0.31511-0.55175 0.70025-0.64842 1.1825-0.29679 3.2769-0.0212 3.5324 0.46481 0.70216 1.3359 1.0546 2.3192 0.94701 2.642-0.14134 0.42402-0.94043 0.46933-1.5434 0.0875zm-6.7126-6.1103c1.611-3.0447 2.4895-4.4325 2.8056-4.4325 0.41774 0 0.33324 0.38509-0.49582 2.2598-0.99745 2.2554-2.4499 4.3515-3.0152 4.3515-0.33134 0-0.14833-0.56522 0.70542-2.1787zm4.6213-5.9734c-0.21525-0.57686-0.10129-0.90132 0.5971-1.7 0.47472-0.54291 0.86312-1.1952 0.86312-1.4495 0-0.27982 0.20761-0.42106 0.52589-0.35777 0.34203 0.068 0.4946 0.32907 0.43638 0.74669-0.04923 0.35316 0.04588 0.72579 0.21136 0.82806 0.30182 0.18654 0.75339-1.1668 1.047-3.1378 0.08617-0.57848 0.37156-1.6603 0.63421-2.4041 0.26264-0.74376 0.54912-1.8256 0.63661-2.4041 0.4395-2.906 2.7039-8.4143 3.4591-8.4143 0.40762 0 0.23156 0.82657-0.6401 3.0051-0.36372 0.90904-0.69141 1.8556-0.7282 2.1036-0.03679 0.24792-0.15309 0.72122-0.25843 1.0518-0.10535 0.33056-0.25068 0.9391-0.32297 1.3523-0.2837 1.6216-0.48864 2.9045-0.64048 4.0092-0.08726 0.63488-0.57356 2.19-1.0807 3.4559l-1.1929 2.9777c-0.14899 0.37188-0.52734 0.67615-0.84078 0.67615s-0.99073 0.0842-1.5051 0.18703c-0.79527 0.15906-0.97497 0.0804-1.2012-0.52589zm-17.919-9.8723c-0.21669-0.35061 0.35156-1.5088 0.74028-1.5088 0.44965 0 0.55257 0.41119 0.28207 1.1269-0.26862 0.71077-0.71583 0.8778-1.0223 0.38185zm0.89882-3.0864c0.10554-0.37188 0.56976-1.4875 1.0316-2.4792 0.46185-0.99168 0.92129-2.0397 1.021-2.3289 0.15686-0.45514 1.1016-0.7814 1.1016-0.38043 0 0.08-0.3976 0.96626-0.88355 1.9695s-1.0374 2.29-1.2253 2.8596c-0.38429 1.1644-1.37 1.5034-1.0453 0.3595z"/>
  </g>
    <text x="50%" y="140" fill="#DDDDDD" font-family="'Roboto', sans-serif" font-size="25" text-anchor="middle" alignment-baseline="middle" dy=".3em">SlowShop</text>
</svg>
